# xmcd
#
# Track frame offsets: 
#        150
#        15052
#        31302
#        50872
#        63930
#        82792
#        102502
#        114927
#        128857
#        145707
#
# Disc length: 2155 seconds
#
# Revision: 0
# Processed by: cddbd v1.4PL0 Copyright (c) Steve Scherf et al.
# Submitted via: ExactAudioCopy v0.90b4
#
DISCID=7508690a
DTITLE=Jason McCoy - Country...Closer To The Edge
DYEAR=1900
DGENRE=Country
TTITLE0=Your Mama Warned You 'Bout Me
TTITLE1=Take It From Me
TTITLE2=Ghosts
TTITLE3=Don't Walk Away
TTITLE4=She's Gonna Keep Him Around
TTITLE5=Your Daddy Don't Like Me
TTITLE6=She's My Wife
TTITLE7=Somebody's Holding My Heart
TTITLE8=Friends Can't Be Lovers
TTITLE9=How Could You Hold Me
EXTD=
EXTT0=
EXTT1=
EXTT2=
EXTT3=
EXTT4=
EXTT5=
EXTT6=
EXTT7=
EXTT8=
EXTT9=
PLAYORDER=
